<?xml version="1.0" standalone="no"?>
<!DOCTYPE svg PUBLIC "-//W3C//DTD SVG 20010904//EN"
 "http://www.w3.org/TR/2001/REC-SVG-20010904/DTD/svg10.dtd">
<svg version="1.0" xmlns="http://www.w3.org/2000/svg"
 width="1112.000000pt" height="1383.000000pt" viewBox="0 0 1112.000000 1383.000000"
 preserveAspectRatio="xMidYMid meet">

<g transform="translate(0.000000,1383.000000) scale(0.100000,-0.100000)"
fill="#ffffff" stroke="none">
<path d="M5713 13805 c-212 -38 -400 -136 -561 -289 -133 -127 -216 -252 -273
-406 -207 -569 87 -1185 668 -1393 157 -57 383 -74 553 -41 423 80 769 416
861 836 23 105 27 288 9 389 -73 399 -371 745 -749 868 -154 50 -353 64 -508
36z"/>
<path d="M2140 11594 c-478 -67 -908 -283 -1289 -649 -211 -203 -487 -622
-632 -960 -148 -344 -213 -648 -212 -990 0 -521 166 -1007 525 -1545 357 -534
753 -950 1762 -1848 l349 -311 24 19 c38 30 469 423 1388 1265 3534 3241 3399
3117 3478 3183 507 423 1205 473 1733 124 267 -177 455 -432 531 -719 34 -132
43 -362 19 -503 -75 -428 -384 -862 -881 -1236 -205 -155 -467 -315 -735 -449
l-148 -74 5 -733 c3 -403 7 -735 9 -737 4 -5 255 110 439 202 659 328 1172
685 1601 1112 329 328 540 615 719 980 254 516 343 1051 265 1582 -125 855
-677 1610 -1455 1993 -324 159 -600 234 -959 261 -569 41 -1191 -147 -1717
-521 -185 -132 7 38 -2638 -2345 -910 -819 -1661 -1494 -1669 -1499 -17 -10
-275 161 -437 290 -207 166 -480 448 -589 608 -208 305 -266 726 -155 1125
114 410 404 748 751 878 141 53 214 66 373 66 384 0 742 -174 1157 -564 l117
-109 84 107 c97 125 490 649 625 835 50 70 92 135 92 144 0 63 -226 274 -480
446 -437 297 -898 486 -1377 564 -141 23 -535 28 -673 8z"/>
<path d="M6570 8206 l-665 -602 -5 -3794 c-3 -2087 -5 -3796 -4 -3798 0 -1
305 211 678 470 l676 473 -6 3925 c-4 2159 -7 3925 -8 3926 0 1 -300 -270
-666 -600z"/>
<path d="M3795 5220 l-470 -471 85 -76 c309 -278 516 -570 615 -868 94 -279
92 -592 -5 -856 -206 -565 -807 -945 -1350 -854 -241 40 -432 143 -609 330
-235 249 -399 626 -481 1109 -11 66 -22 121 -24 123 -2 2 -219 -93 -482 -211
-264 -118 -535 -239 -604 -269 l-125 -54 3 -59 c5 -101 32 -294 58 -424 80
-387 228 -731 438 -1015 84 -113 332 -357 446 -437 384 -272 817 -410 1330
-425 498 -15 975 88 1430 308 340 165 574 332 821 586 362 374 573 810 630
1307 17 145 6 471 -20 619 -119 672 -473 1312 -1114 2010 -49 53 -92 97 -96
97 -3 0 -218 -212 -476 -470z"/>
</g>
</svg>
